<mxfile host="app.diagrams.net" modified="2024-02-04T22:35:19.886Z" agent="Mozilla/5.0 (Windows NT 10.0; Win64; x64) AppleWebKit/537.36 (KHTML, like Gecko) Chrome/121.0.0.0 Safari/537.36" etag="JkefmoZCgrc70-vdafzV" version="23.1.1" type="device">
  <diagram name="Page-1" id="3pUTqT1OGOebmwF4Dtuj">
    <mxGraphModel dx="1259" dy="662" grid="1" gridSize="10" guides="1" tooltips="1" connect="1" arrows="1" fold="1" page="1" pageScale="1" pageWidth="850" pageHeight="1100" math="0" shadow="0">
      <root>
        <mxCell id="0" />
        <mxCell id="1" parent="0" />
        <mxCell id="W35Wy6Uiv02ZZpM6GaD9-1" value="Robot" style="shape=umlActor;verticalLabelPosition=bottom;verticalAlign=top;html=1;outlineConnect=0;" parent="1" vertex="1">
          <mxGeometry x="80" y="230" width="30" height="60" as="geometry" />
        </mxCell>
        <mxCell id="W35Wy6Uiv02ZZpM6GaD9-2" value="" style="rounded=0;whiteSpace=wrap;html=1;" parent="1" vertex="1">
          <mxGeometry x="360" y="55" width="510" height="525" as="geometry" />
        </mxCell>
        <mxCell id="W35Wy6Uiv02ZZpM6GaD9-5" value="" style="endArrow=none;html=1;rounded=0;" parent="1" source="W35Wy6Uiv02ZZpM6GaD9-1" target="W35Wy6Uiv02ZZpM6GaD9-9" edge="1">
          <mxGeometry width="50" height="50" relative="1" as="geometry">
            <mxPoint x="200" y="250" as="sourcePoint" />
            <mxPoint x="387.7541313220122" y="149.66801358192902" as="targetPoint" />
          </mxGeometry>
        </mxCell>
        <mxCell id="W35Wy6Uiv02ZZpM6GaD9-6" value="Calls" style="edgeLabel;html=1;align=center;verticalAlign=middle;resizable=0;points=[];" parent="W35Wy6Uiv02ZZpM6GaD9-5" vertex="1" connectable="0">
          <mxGeometry x="-0.1476" relative="1" as="geometry">
            <mxPoint y="1" as="offset" />
          </mxGeometry>
        </mxCell>
        <mxCell id="W35Wy6Uiv02ZZpM6GaD9-7" value="" style="endArrow=none;html=1;rounded=0;" parent="1" source="W35Wy6Uiv02ZZpM6GaD9-1" target="W35Wy6Uiv02ZZpM6GaD9-10" edge="1">
          <mxGeometry width="50" height="50" relative="1" as="geometry">
            <mxPoint x="120" y="264" as="sourcePoint" />
            <mxPoint x="381.7744499355292" y="307.84402154818054" as="targetPoint" />
          </mxGeometry>
        </mxCell>
        <mxCell id="W35Wy6Uiv02ZZpM6GaD9-8" value="Calls" style="edgeLabel;html=1;align=center;verticalAlign=middle;resizable=0;points=[];" parent="W35Wy6Uiv02ZZpM6GaD9-7" vertex="1" connectable="0">
          <mxGeometry x="-0.1476" relative="1" as="geometry">
            <mxPoint y="1" as="offset" />
          </mxGeometry>
        </mxCell>
        <mxCell id="W35Wy6Uiv02ZZpM6GaD9-9" value="Specific Language Endpoint" style="ellipse;whiteSpace=wrap;html=1;" parent="1" vertex="1">
          <mxGeometry x="440" y="110" width="120" height="80" as="geometry" />
        </mxCell>
        <mxCell id="W35Wy6Uiv02ZZpM6GaD9-10" value="Criteria Language Endpoint" style="ellipse;whiteSpace=wrap;html=1;" parent="1" vertex="1">
          <mxGeometry x="390" y="390" width="120" height="80" as="geometry" />
        </mxCell>
        <mxCell id="W35Wy6Uiv02ZZpM6GaD9-11" value="Apache Jena Framework" style="ellipse;whiteSpace=wrap;html=1;" parent="1" vertex="1">
          <mxGeometry x="700" y="250" width="120" height="80" as="geometry" />
        </mxCell>
        <mxCell id="W35Wy6Uiv02ZZpM6GaD9-12" value="" style="endArrow=none;html=1;rounded=0;" parent="1" source="W35Wy6Uiv02ZZpM6GaD9-10" target="W35Wy6Uiv02ZZpM6GaD9-11" edge="1">
          <mxGeometry width="50" height="50" relative="1" as="geometry">
            <mxPoint x="130" y="490" as="sourcePoint" />
            <mxPoint x="180" y="440" as="targetPoint" />
          </mxGeometry>
        </mxCell>
        <mxCell id="W35Wy6Uiv02ZZpM6GaD9-13" value="Request a language&lt;br&gt;to achieve&amp;nbsp;&lt;br&gt;the requirements" style="edgeLabel;html=1;align=center;verticalAlign=middle;resizable=0;points=[];" parent="W35Wy6Uiv02ZZpM6GaD9-12" vertex="1" connectable="0">
          <mxGeometry x="-0.216" relative="1" as="geometry">
            <mxPoint as="offset" />
          </mxGeometry>
        </mxCell>
        <mxCell id="W35Wy6Uiv02ZZpM6GaD9-18" value="" style="endArrow=none;html=1;rounded=0;" parent="1" source="W35Wy6Uiv02ZZpM6GaD9-24" target="W35Wy6Uiv02ZZpM6GaD9-11" edge="1">
          <mxGeometry width="50" height="50" relative="1" as="geometry">
            <mxPoint x="150" y="510" as="sourcePoint" />
            <mxPoint x="200" y="460" as="targetPoint" />
          </mxGeometry>
        </mxCell>
        <mxCell id="W35Wy6Uiv02ZZpM6GaD9-19" value="Interrogates Ontology" style="edgeLabel;html=1;align=center;verticalAlign=middle;resizable=0;points=[];" parent="W35Wy6Uiv02ZZpM6GaD9-18" vertex="1" connectable="0">
          <mxGeometry x="0.3375" y="-1" relative="1" as="geometry">
            <mxPoint as="offset" />
          </mxGeometry>
        </mxCell>
        <mxCell id="W35Wy6Uiv02ZZpM6GaD9-22" value="" style="endArrow=none;html=1;rounded=0;" parent="1" source="W35Wy6Uiv02ZZpM6GaD9-11" target="W35Wy6Uiv02ZZpM6GaD9-9" edge="1">
          <mxGeometry width="50" height="50" relative="1" as="geometry">
            <mxPoint x="170" y="530" as="sourcePoint" />
            <mxPoint x="220" y="480" as="targetPoint" />
          </mxGeometry>
        </mxCell>
        <mxCell id="W35Wy6Uiv02ZZpM6GaD9-23" value="Retrieve valid data for&amp;nbsp;&lt;br&gt;the provided name" style="edgeLabel;html=1;align=center;verticalAlign=middle;resizable=0;points=[];" parent="W35Wy6Uiv02ZZpM6GaD9-22" vertex="1" connectable="0">
          <mxGeometry x="0.3729" y="-1" relative="1" as="geometry">
            <mxPoint x="12" as="offset" />
          </mxGeometry>
        </mxCell>
        <mxCell id="W35Wy6Uiv02ZZpM6GaD9-24" value="Ontology" style="ellipse;whiteSpace=wrap;html=1;" parent="1" vertex="1">
          <mxGeometry x="630" y="440" width="120" height="80" as="geometry" />
        </mxCell>
        <mxCell id="W35Wy6Uiv02ZZpM6GaD9-25" value="&lt;font style=&quot;font-size: 17px;&quot;&gt;ELA Software&lt;/font&gt;" style="text;html=1;strokeColor=none;fillColor=none;align=center;verticalAlign=middle;whiteSpace=wrap;rounded=0;" parent="1" vertex="1">
          <mxGeometry x="610" y="60" width="110" height="30" as="geometry" />
        </mxCell>
      </root>
    </mxGraphModel>
  </diagram>
</mxfile>
